solid OpenSCAD_Model
  facet normal 1 -0 0
    outer loop
      vertex 114.8 0.2 -0.1
      vertex 114.8 5 -4.9
      vertex 114.8 5 -0.1
    endloop
  endfacet
  facet normal 1 0 0
    outer loop
      vertex 114.8 5 -4.9
      vertex 114.8 0.2 -0.1
      vertex 114.8 0.2 -4.9
    endloop
  endfacet
  facet normal -1 0 0
    outer loop
      vertex 0 0.2 -4.9
      vertex 0 5 -0.1
      vertex 0 5 -4.9
    endloop
  endfacet
  facet normal -1 -0 0
    outer loop
      vertex 0 5 -0.1
      vertex 0 0.2 -4.9
      vertex 0 0.2 -0.1
    endloop
  endfacet
  facet normal 0 -1 0
    outer loop
      vertex 0 0.2 -4.9
      vertex 114.8 0.2 -0.1
      vertex 0 0.2 -0.1
    endloop
  endfacet
  facet normal 0 -1 -0
    outer loop
      vertex 114.8 0.2 -0.1
      vertex 0 0.2 -4.9
      vertex 114.8 0.2 -4.9
    endloop
  endfacet
  facet normal 0 0 -1
    outer loop
      vertex 0 0.2 -4.9
      vertex 114.8 5 -4.9
      vertex 114.8 0.2 -4.9
    endloop
  endfacet
  facet normal -0 0 -1
    outer loop
      vertex 114.8 5 -4.9
      vertex 0 0.2 -4.9
      vertex 0 5 -4.9
    endloop
  endfacet
  facet normal 0 1 -0
    outer loop
      vertex 114.8 5 -4.9
      vertex 0 5 -0.1
      vertex 114.8 5 -0.1
    endloop
  endfacet
  facet normal 0 1 0
    outer loop
      vertex 0 5 -0.1
      vertex 114.8 5 -4.9
      vertex 0 5 -4.9
    endloop
  endfacet
  facet normal -0 0 1
    outer loop
      vertex 0 5 -0.1
      vertex 114.8 0.2 -0.1
      vertex 114.8 5 -0.1
    endloop
  endfacet
  facet normal 0 0 1
    outer loop
      vertex 114.8 0.2 -0.1
      vertex 0 5 -0.1
      vertex 0 0.2 -0.1
    endloop
  endfacet
endsolid OpenSCAD_Model
